+15_ID_stride5.mot
nRows=15
nColumns=38

name +15_ID_stride5.mot
datacolumns 38
datarows 15
range 2.0700000000 2.1400000000
endheader
time	pelvis_tilt_moment	pelvis_list_moment	pelvis_rotation_moment	pelvis_tx_force	pelvis_ty_force	pelvis_tz_force	hip_flexion_r_moment	hip_adduction_r_moment	hip_rotation_r_moment	knee_angle_r_moment	ankle_angle_r_moment	subtalar_angle_r_moment	mtp_angle_r_moment	hip_flexion_l_moment	hip_adduction_l_moment	hip_rotation_l_moment	knee_angle_l_moment	ankle_angle_l_moment	subtalar_angle_l_moment	mtp_angle_l_moment	lumbar_extension_moment	lumbar_bending_moment	lumbar_rotation_moment	arm_flex_r_moment	arm_add_r_moment	arm_rot_r_moment	elbow_flex_r_moment	pro_sup_r_moment	wrist_flex_r_moment	wrist_dev_r_moment	arm_flex_l_moment	arm_add_l_moment	arm_rot_l_moment	elbow_flex_l_moment	pro_sup_l_moment	wrist_flex_l_moment	wrist_dev_l_moment
        2.0700000000	      -38.4787887530	       66.0553319017	       29.6664151358	      -96.8160948704	      421.8915470944	      109.6091474634	       72.1494257977	       -8.3675111905	        4.2738271887	       32.8105846536	        4.4644379474	       -0.6920275480	        0.2266502100	      -24.9948938410	      -53.9372032966	        0.2464493892	        9.3021813935	        7.5481818310	       -1.0807091634	        0.2747973870	       43.5955625705	        9.4905015837	        1.7560322471	       -2.7892998713	        1.7236599987	        1.2767787048	        2.2833953451	       -0.0147810124	        0.1650091575	       -0.1488018242	       -3.4373307013	        0.1076496814	        0.2967740577	        2.2808995759	       -0.0389355825	        0.0806054636	       -0.1692056078	
        2.0750000000	      -69.7824633088	       89.3605146257	       31.9043488239	     -105.3467987137	      300.5614158386	       18.9767684061	       73.8927944422	       -2.5592091008	        2.8916183584	       32.0602054862	        4.4649762912	       -0.5960985463	        0.2324400165	      -13.6464201951	      -85.6967792594	        9.0862658667	       25.7816680330	       -0.6884874045	        4.5122050624	        0.2922794493	       39.7089893734	       13.8028162491	        6.0447855907	       -2.8133827227	        1.6953589419	        1.5116542084	        2.3307459637	       -0.0070967126	        0.1981860119	       -0.1377556493	       -4.3295123852	        0.1696403610	        0.1685484550	        2.2657841454	       -0.0460894290	        0.0568665234	       -0.1655409384	
        2.0800000000	      -88.5270839491	       91.3698891501	       36.9835728922	     -107.1998823494	      129.9071911950	      -63.3905346266	       78.9990242887	        3.3848335143	        1.4473221475	       31.8913417856	        4.4609548448	       -0.4994353647	        0.2344649833	      -28.0170391658	     -106.6284781004	       12.1870402534	       31.2544744479	      -16.6792836008	        8.4122695904	        0.2931299531	       32.0758008350	       17.4865612516	        9.6567084269	       -2.4122476980	        1.5231989029	        1.6245071736	        2.3111511936	       -0.0017498400	        0.2169892267	       -0.1259649576	       -4.7231347245	        0.3018544089	        0.0481373473	        2.1876491316	       -0.0512057733	        0.0332701987	       -0.1588457708	
        2.0850000000	      -85.0318047216	       64.2504871174	       46.0752142015	      -98.5501011804	      -54.9073604164	     -110.1731897159	       83.4702496186	        9.3747229916	        0.0036584990	       32.0650644056	        4.3983325710	       -0.3977905148	        0.2311863364	      -64.9048893987	     -108.3117501643	        3.8622025510	       26.3817338830	      -37.7398472267	        8.1226290864	        0.2707289957	       23.3310037704	       19.7133480884	       12.7882612248	       -1.9236065003	        1.4313722148	        1.7264451214	        2.2147302413	        0.0043811528	        0.2311732761	       -0.1098469083	       -4.8600466880	        0.2936220310	       -0.1259142556	        2.0514907639	       -0.0558276476	        0.0053102168	       -0.1486947921	
        2.0900000000	      -65.2516943309	       20.4820558359	       58.3930546721	      -81.1557408006	     -216.9784161117	     -103.6815240818	       84.2172411975	       15.3514171942	       -1.3986022800	       32.0675720999	        4.2592028986	       -0.2894414234	        0.2237338393	     -111.4708383540	      -96.3393127038	      -14.3445040618	       18.5799811744	      -60.7390717176	        4.6856804980	        0.2309331035	       15.6905240330	       20.5300579699	       15.5255141460	       -1.5002121485	        1.4767555790	        1.8750265744	        2.1465878420	        0.0114119677	        0.2478465508	       -0.0955828629	       -4.9608468012	        0.1546493665	       -0.3489698296	        1.9514022806	       -0.0614177229	       -0.0252955389	       -0.1433804967	
        2.0950000000	      -32.8359054839	      -22.9508332838	       70.8424716347	      -56.8055804400	     -307.9805810065	      -72.7059647074	       83.1193618451	       20.9988715651	       -2.6807469604	       31.8625674358	        4.0573401564	       -0.1807282292	        0.2137021689	     -150.6228413947	      -72.2972994353	      -37.7079366473	       18.2574196196	      -81.7812391526	       -1.1929431289	        0.1806161994	       14.4130901441	       21.4936209466	       17.3062322777	       -1.1462530260	        1.5686924727	        1.9895793987	        2.2113582927	        0.0119886791	        0.2650619391	       -0.0985747548	       -4.9439018318	        0.0818606000	       -0.5008520907	        2.0084984615	       -0.0685824457	       -0.0390716613	       -0.1495673043	
        2.1000000000	       -1.1819342058	      -51.7337752054	       78.9800926485	      -27.8740278234	     -348.5848259260	      -25.0864174842	       79.1512700553	       26.0069532442	       -3.8138930810	       31.1324022010	        3.8300278585	       -0.0779886105	        0.2035245109	     -173.2347952682	      -46.6882653901	      -57.0397918865	       24.3958415054	      -99.1296812440	       -5.5513735136	        0.1271563756	       14.4065565644	       23.2915145518	       18.2038458656	       -0.8001185681	        1.6371951595	        2.0477172617	        2.5457758814	        0.0080830169	        0.2766994267	       -0.1240497800	       -4.7704049937	        0.0683399666	       -0.5730412921	        2.3374281342	       -0.0769932346	       -0.0436547787	       -0.1801504732	
        2.1050000000	       17.7594575247	      -54.8195470803	       77.6973118977	        3.3237604045	     -307.7173116587	        0.6647140308	       75.5144138586	       29.8143290562	       -4.7219751244	       30.0218468740	        3.6328351106	        0.0082115894	        0.1958576670	     -170.4462241008	      -28.5652361489	      -62.7685540382	       44.4966334489	     -110.5319237874	       -5.4195860102	        0.0794780570	       20.6659245770	       28.0546875513	       17.0603940030	       -0.2986583285	        1.4454348974	        1.8305904176	        3.2691869536	       -0.0127842824	        0.2699054694	       -0.1941337973	       -4.0216953002	        0.5606573301	       -0.3609039991	        3.0930300813	       -0.0855373961	       -0.0090261255	       -0.2441249877	
        2.1100000000	       15.8914228174	      -39.7695003369	       68.3705068789	       36.3269467800	     -214.0859910866	      -11.7957854036	       73.4732514047	       31.9601388800	       -5.4357431316	       28.5641479286	        3.4965787318	        0.0756941277	        0.1919424481	     -151.7409970679	      -25.4384794428	      -54.3759686178	       72.5564660493	     -116.8336358719	       -1.8011502823	        0.0432829090	       31.0259543566	       35.9674714066	       13.7313899664	        0.4192399659	        0.9355521082	        1.2931055724	        4.3575165730	       -0.0508839831	        0.2397748503	       -0.3071285141	       -2.5700981043	        1.5887493358	        0.1501586504	        4.2565998667	       -0.0923670107	        0.0644010297	       -0.3400004974	
        2.1150000000	        4.0282028419	       -9.0672867392	       52.2048867023	       70.3487599723	      -83.6180750609	      -54.7045915218	       73.0853051682	       32.1774077849	       -6.0710563518	       26.7909256261	        3.4097789910	        0.1322130258	        0.1912445401	     -120.8100421919	      -29.3015559866	      -35.5369350162	      101.1962523845	     -121.9948998386	        4.7201758075	        0.0204956898	       44.3528105896	       46.4241021514	        7.8103420298	        1.2994568178	        0.0938517914	        0.4168842221	        5.7083456302	       -0.1045627736	        0.1796053625	       -0.4543513012	       -0.4117191122	        3.1076447986	        0.9658382301	        5.7343392074	       -0.0938577877	        0.1753026923	       -0.4594268642	
        2.1200000000	      -14.2314931786	       19.6579898101	       37.9051252628	      101.6961902859	       48.8191939215	     -118.9595492376	       72.8245659492	       31.6067605893	       -6.7527776853	       24.7218557973	        3.3326346630	        0.1887423203	        0.1909809102	      -94.8067527142	      -41.4945990604	      -20.4057909858	      120.0908142086	     -129.1707681379	        9.2510126460	        0.0130312972	       59.4656921435	       57.4623521161	       -0.3937786227	        2.1402148814	       -0.9353150780	       -0.6902641252	        7.1173588339	       -0.1672280710	        0.0953827480	       -0.6151844648	        2.2211151118	        4.8784564061	        1.9848351485	        7.3250109715	       -0.0928776815	        0.3114694838	       -0.5854379035	
        2.1250000000	      -28.4479466543	       39.7406192264	       28.2762476635	      126.9281222081	      162.8376807688	     -181.3751862079	       71.4363992709	       29.8315571065	       -7.5573681390	       22.4094046416	        3.2351624004	        0.2525910781	        0.1899568974	      -78.3700232045	      -54.7605798168	      -13.0099275826	      129.6729885322	     -141.5112520507	       11.3337470916	        0.0119609728	       75.2784415016	       67.3584836295	      -10.2449594833	        2.7926777355	       -1.9834478802	       -1.8844764652	        8.4227322721	       -0.2314744434	       -0.0030881063	       -0.7708307108	        5.0147424725	        6.6451429480	        3.0821875800	        8.8526128716	       -0.0847458185	        0.4577312024	       -0.7040517243	
        2.1300000000	      -30.8171978110	       44.5622097791	       24.8353252905	      131.3526660947	      232.1199524991	     -215.8522638627	       67.6889963390	       27.9070180380	       -8.4630104324	       19.9917673537	        3.0816984484	        0.3255954053	        0.1863889517	      -78.1819684347	      -64.8076362963	      -17.4302679207	      127.0138179514	     -157.6031477293	       10.3274213690	        0.0162487650	       90.2094804352	       73.3744292607	      -20.4363600770	        2.8947950926	       -2.8041489119	       -2.9423757292	        9.3912756368	       -0.2862310427	       -0.0984135649	       -0.8941451295	        7.4814723569	        8.0391987109	        4.0672860500	       10.0616100735	       -0.0733173120	        0.5907621998	       -0.7949818195	
        2.1350000000	      -28.9215051774	       44.9249939146	       21.7591595972	      122.5606462886	      240.1266810684	     -216.1654031740	       61.0197255056	       25.8192174238	       -9.3042458655	       17.6212574348	        2.8768277380	        0.3958609246	        0.1797320261	      -80.8342866167	      -72.8024637214	      -25.8954015386	      120.2076563762	     -174.1124696080	        8.8816226339	        0.0235463954	      103.0292788036	       73.8377678216	      -29.9681339174	        2.7128259478	       -3.2484190697	       -3.7378144324	        9.9100932049	       -0.3256170105	       -0.1793922943	       -0.9736993324	        9.3492362254	        8.8925106202	        4.8324092284	       10.8439434507	       -0.0591794080	        0.6967265482	       -0.8493526368	
        2.1400000000	      -23.3708650880	       45.9527346610	       16.6377237450	       90.3683697802	      221.6127588624	     -194.5270814092	       52.3374776559	       23.4970659994	       -9.6434814081	       15.4654920050	        2.6530574480	        0.4360574976	        0.1712294246	      -81.9772131546	      -80.4376766503	      -28.9319653373	      114.5174302431	     -187.0590257183	        8.7126309320	        0.0297287921	      112.6171349839	       71.2458144343	      -37.7497053571	        2.0681606114	       -3.3311969567	       -4.1814672610	       10.0146610674	       -0.3454235216	       -0.2370596103	       -0.9974688838	       10.4505761098	        9.1142988182	        5.3125838495	       11.0893689077	       -0.0447537105	        0.7669978408	       -0.8630861964	
